<svg xmlns="http://www.w3.org/2000/svg" xmlns:xlink="http://www.w3.org/1999/xlink" width="500" zoomAndPan="magnify" viewBox="0 0 375 374.999991" height="500" preserveAspectRatio="xMidYMid meet" version="1.0"><defs><g/></defs><path fill="#f2aa52" d="M 158.558594 86.148438 C 161.929688 86.148438 164.667969 83.410156 164.667969 80.035156 L 164.667969 68.203125 C 164.667969 52.902344 177.136719 40.4375 192.488281 40.4375 C 207.835938 40.4375 220.304688 52.902344 220.304688 68.203125 L 220.304688 80.035156 C 220.304688 83.410156 223.042969 86.148438 226.414062 86.148438 C 229.789062 86.148438 232.527344 83.410156 232.527344 80.035156 L 232.527344 69.867188 C 232.527344 48.503906 216.492188 29.730469 195.125 28.3125 C 171.90625 26.796875 152.445312 45.277344 152.445312 68.203125 L 152.445312 80.035156 C 152.445312 83.410156 155.183594 86.148438 158.558594 86.148438 Z M 158.558594 86.148438 " fill-opacity="1" fill-rule="nonzero"/><path fill="#f26666" d="M 287.085938 245.035156 L 273.640625 114.257812 C 272.566406 103.84375 263.816406 95.972656 253.351562 95.972656 L 131.621094 95.972656 C 121.15625 95.972656 112.40625 103.894531 111.332031 114.257812 L 107.957031 146.816406 C 105.710938 168.671875 126.488281 185.734375 147.460938 179.328125 L 158.851562 175.859375 C 171.808594 171.898438 186.277344 178.449219 191.363281 192.824219 C 193.121094 197.808594 192.878906 203.285156 191.3125 208.367188 L 186.277344 224.796875 C 179.335938 247.480469 196.300781 270.410156 220.011719 270.410156 L 264.207031 270.410156 C 277.847656 270.359375 288.503906 258.578125 287.085938 245.035156 Z M 287.085938 245.035156 " fill-opacity="1" fill-rule="nonzero"/><path fill="#f2aa52" d="M 163.152344 189.839844 L 97.300781 209.933594 C 87.71875 212.867188 87.035156 226.164062 96.273438 230.074219 L 111.964844 236.675781 C 120.277344 240.195312 126.925781 246.796875 130.445312 255.15625 L 137.046875 270.847656 C 140.957031 280.089844 154.253906 279.40625 157.1875 269.824219 L 177.28125 203.96875 C 179.972656 195.316406 171.855469 187.199219 163.152344 189.839844 Z M 163.152344 189.839844 " fill-opacity="1" fill-rule="nonzero"/><g fill="#f2aa52" fill-opacity="1"><g transform="translate(21.688979, 341.16556)"><g><path d="M 7.046875 -6.453125 L 7.046875 -52.21875 C 7.046875 -54 7.671875 -55.519531 8.921875 -56.78125 C 10.179688 -58.039062 11.707031 -58.671875 13.5 -58.671875 L 34.28125 -58.671875 C 36.6875 -58.671875 39.046875 -58.390625 41.359375 -57.828125 C 43.679688 -57.273438 45.75 -56.394531 47.5625 -55.1875 C 49.375 -53.988281 50.835938 -52.425781 51.953125 -50.5 C 53.078125 -48.570312 53.640625 -46.238281 53.640625 -43.5 L 53.640625 -43.328125 C 53.640625 -40.035156 52.882812 -37.382812 51.375 -35.375 C 49.863281 -33.363281 48.046875 -31.796875 45.921875 -30.671875 C 49.335938 -29.390625 52.019531 -27.644531 53.96875 -25.4375 C 55.925781 -23.226562 56.90625 -20.171875 56.90625 -16.265625 L 56.90625 -16.09375 C 56.90625 -13.40625 56.390625 -11.054688 55.359375 -9.046875 C 54.328125 -7.035156 52.847656 -5.359375 50.921875 -4.015625 C 48.992188 -2.679688 46.671875 -1.675781 43.953125 -1 C 41.242188 -0.332031 38.242188 0 34.953125 0 L 13.5 0 C 11.707031 0 10.179688 -0.625 8.921875 -1.875 C 7.671875 -3.132812 7.046875 -4.660156 7.046875 -6.453125 Z M 19.609375 -24.21875 L 19.609375 -11.3125 L 34.953125 -11.3125 C 37.796875 -11.3125 40.023438 -11.828125 41.640625 -12.859375 C 43.265625 -13.898438 44.078125 -15.507812 44.078125 -17.6875 L 44.078125 -17.859375 C 44.078125 -19.804688 43.320312 -21.351562 41.8125 -22.5 C 40.3125 -23.644531 37.882812 -24.21875 34.53125 -24.21875 Z M 19.609375 -34.953125 L 31.515625 -34.953125 C 34.359375 -34.953125 36.617188 -35.441406 38.296875 -36.421875 C 39.972656 -37.398438 40.8125 -38.976562 40.8125 -41.15625 L 40.8125 -41.3125 C 40.8125 -43.269531 40.082031 -44.765625 38.625 -45.796875 C 37.175781 -46.835938 35.085938 -47.359375 32.359375 -47.359375 L 19.609375 -47.359375 Z M 19.609375 -34.953125 "/></g></g></g><g fill="#f2aa52" fill-opacity="1"><g transform="translate(75.825381, 341.16556)"><g><path d="M 5.359375 -39.0625 C 5.359375 -40.84375 5.972656 -42.347656 7.203125 -43.578125 C 8.429688 -44.804688 9.941406 -45.421875 11.734375 -45.421875 C 13.523438 -45.421875 15.035156 -44.804688 16.265625 -43.578125 C 17.492188 -42.347656 18.109375 -40.84375 18.109375 -39.0625 L 18.109375 -19.859375 C 18.109375 -13.773438 20.675781 -10.734375 25.8125 -10.734375 C 28.320312 -10.734375 30.273438 -11.5 31.671875 -13.03125 C 33.078125 -14.570312 33.78125 -16.847656 33.78125 -19.859375 L 33.78125 -39.0625 C 33.78125 -40.84375 34.394531 -42.347656 35.625 -43.578125 C 36.851562 -44.804688 38.359375 -45.421875 40.140625 -45.421875 C 41.929688 -45.421875 43.441406 -44.804688 44.671875 -43.578125 C 45.898438 -42.347656 46.515625 -40.84375 46.515625 -39.0625 L 46.515625 -5.859375 C 46.515625 -4.078125 45.898438 -2.570312 44.671875 -1.34375 C 43.441406 -0.113281 41.929688 0.5 40.140625 0.5 C 38.359375 0.5 36.851562 -0.113281 35.625 -1.34375 C 34.394531 -2.570312 33.78125 -4.078125 33.78125 -5.859375 L 33.78125 -6.375 C 32.320312 -4.46875 30.554688 -2.785156 28.484375 -1.328125 C 26.421875 0.117188 23.800781 0.84375 20.625 0.84375 C 15.707031 0.84375 11.929688 -0.625 9.296875 -3.5625 C 6.671875 -6.5 5.359375 -10.59375 5.359375 -15.84375 Z M 5.359375 -39.0625 "/></g></g></g><g fill="#f2aa52" fill-opacity="1"><g transform="translate(121.665175, 341.16556)"><g><path d="M 2.765625 -39.3125 C 2.765625 -41.09375 3.363281 -42.554688 4.5625 -43.703125 C 5.769531 -44.847656 7.265625 -45.421875 9.046875 -45.421875 C 10.671875 -45.421875 11.957031 -45 12.90625 -44.15625 C 13.851562 -43.320312 14.609375 -42.15625 15.171875 -40.65625 L 24.890625 -14.5 L 34.28125 -40.5625 C 34.78125 -41.90625 35.519531 -43.050781 36.5 -44 C 37.476562 -44.945312 38.773438 -45.421875 40.390625 -45.421875 C 42.015625 -45.421875 43.425781 -44.863281 44.625 -43.75 C 45.832031 -42.632812 46.4375 -41.238281 46.4375 -39.5625 C 46.4375 -39.0625 46.363281 -38.503906 46.21875 -37.890625 C 46.082031 -37.273438 45.957031 -36.828125 45.84375 -36.546875 L 30.171875 1.09375 C 29.222656 3.382812 28.257812 5.320312 27.28125 6.90625 C 26.300781 8.5 25.222656 9.800781 24.046875 10.8125 C 22.878906 11.820312 21.566406 12.546875 20.109375 12.984375 C 18.660156 13.429688 16.957031 13.65625 15 13.65625 C 13.9375 13.65625 12.773438 13.570312 11.515625 13.40625 C 10.265625 13.238281 9.078125 12.929688 7.953125 12.484375 C 6.835938 12.035156 5.898438 11.378906 5.140625 10.515625 C 4.390625 9.648438 4.015625 8.546875 4.015625 7.203125 C 4.015625 5.640625 4.53125 4.382812 5.5625 3.4375 C 6.601562 2.488281 7.765625 2.015625 9.046875 2.015625 C 9.554688 2.015625 9.960938 2.039062 10.265625 2.09375 C 10.578125 2.144531 10.867188 2.226562 11.140625 2.34375 C 11.703125 2.507812 12.175781 2.632812 12.5625 2.71875 C 12.957031 2.800781 13.378906 2.84375 13.828125 2.84375 C 14.941406 2.84375 15.820312 2.675781 16.46875 2.34375 C 17.113281 2.007812 17.742188 1.285156 18.359375 0.171875 L 18.78125 -0.84375 L 3.4375 -36.375 C 3.269531 -36.820312 3.113281 -37.3125 2.96875 -37.84375 C 2.832031 -38.375 2.765625 -38.863281 2.765625 -39.3125 Z M 2.765625 -39.3125 "/></g></g></g><g fill="#f2aa52" fill-opacity="1"><g transform="translate(164.404212, 341.16556)"><g><path d="M 2.84375 -52.890625 C 2.84375 -54.671875 3.5 -56.160156 4.8125 -57.359375 C 6.125 -58.566406 7.675781 -59.171875 9.46875 -59.171875 C 10.976562 -59.171875 12.289062 -58.738281 13.40625 -57.875 C 14.53125 -57.007812 15.3125 -55.90625 15.75 -54.5625 L 27.40625 -18.609375 L 39.140625 -54.234375 C 39.640625 -55.734375 40.445312 -56.957031 41.5625 -57.90625 C 42.6875 -58.863281 44.054688 -59.34375 45.671875 -59.34375 L 46.6875 -59.34375 C 48.300781 -59.34375 49.664062 -58.878906 50.78125 -57.953125 C 51.90625 -57.035156 52.71875 -55.796875 53.21875 -54.234375 L 64.953125 -18.609375 L 76.609375 -54.5625 C 77.054688 -55.84375 77.796875 -56.929688 78.828125 -57.828125 C 79.859375 -58.722656 81.1875 -59.171875 82.8125 -59.171875 C 84.59375 -59.171875 86.097656 -58.582031 87.328125 -57.40625 C 88.554688 -56.238281 89.171875 -54.757812 89.171875 -52.96875 C 89.171875 -52.570312 89.113281 -52.148438 89 -51.703125 C 88.894531 -51.265625 88.785156 -50.847656 88.671875 -50.453125 L 72.25 -4.359375 C 71.632812 -2.734375 70.753906 -1.445312 69.609375 -0.5 C 68.460938 0.445312 67.109375 0.921875 65.546875 0.921875 L 64.203125 0.921875 C 62.640625 0.921875 61.296875 0.460938 60.171875 -0.453125 C 59.054688 -1.378906 58.191406 -2.679688 57.578125 -4.359375 L 46.015625 -37.96875 L 34.453125 -4.359375 C 33.835938 -2.679688 32.96875 -1.378906 31.84375 -0.453125 C 30.726562 0.460938 29.390625 0.921875 27.828125 0.921875 L 26.484375 0.921875 C 24.921875 0.921875 23.566406 0.445312 22.421875 -0.5 C 21.273438 -1.445312 20.394531 -2.734375 19.78125 -4.359375 L 3.359375 -50.453125 C 3.242188 -50.847656 3.128906 -51.253906 3.015625 -51.671875 C 2.898438 -52.085938 2.84375 -52.492188 2.84375 -52.890625 Z M 2.84375 -52.890625 "/></g></g></g><g fill="#66abf2" fill-opacity="1"><g transform="translate(250.057571, 341.16556)"><g><path d="M 12.65625 -45.421875 C 14.445312 -45.421875 15.957031 -44.804688 17.1875 -43.578125 C 18.414062 -42.347656 19.03125 -40.84375 19.03125 -39.0625 L 19.03125 -5.859375 C 19.03125 -4.078125 18.414062 -2.570312 17.1875 -1.34375 C 15.957031 -0.113281 14.445312 0.5 12.65625 0.5 C 10.863281 0.5 9.351562 -0.113281 8.125 -1.34375 C 6.894531 -2.570312 6.28125 -4.078125 6.28125 -5.859375 L 6.28125 -39.0625 C 6.28125 -40.84375 6.894531 -42.347656 8.125 -43.578125 C 9.351562 -44.804688 10.863281 -45.421875 12.65625 -45.421875 Z M 12.65625 -61.609375 C 14.664062 -61.609375 16.351562 -61.078125 17.71875 -60.015625 C 19.09375 -58.953125 19.78125 -57.5 19.78125 -55.65625 L 19.78125 -55.484375 C 19.78125 -53.640625 19.09375 -52.171875 17.71875 -51.078125 C 16.351562 -49.992188 14.664062 -49.453125 12.65625 -49.453125 C 10.644531 -49.453125 8.953125 -49.992188 7.578125 -51.078125 C 6.210938 -52.171875 5.53125 -53.640625 5.53125 -55.484375 L 5.53125 -55.65625 C 5.53125 -57.5 6.210938 -58.953125 7.578125 -60.015625 C 8.953125 -61.078125 10.644531 -61.609375 12.65625 -61.609375 Z M 12.65625 -61.609375 "/></g></g></g><g fill="#66abf2" fill-opacity="1"><g transform="translate(268.996241, 341.16556)"><g><path d="M 7.125 -13.65625 C 8.019531 -13.65625 8.859375 -13.429688 9.640625 -12.984375 C 11.867188 -11.753906 14.003906 -10.773438 16.046875 -10.046875 C 18.085938 -9.328125 20.003906 -8.96875 21.796875 -8.96875 C 23.640625 -8.96875 24.992188 -9.273438 25.859375 -9.890625 C 26.722656 -10.503906 27.15625 -11.316406 27.15625 -12.328125 L 27.15625 -12.484375 C 27.15625 -13.160156 26.898438 -13.75 26.390625 -14.25 C 25.890625 -14.75 25.207031 -15.179688 24.34375 -15.546875 C 23.476562 -15.910156 22.488281 -16.257812 21.375 -16.59375 C 20.257812 -16.925781 19.085938 -17.289062 17.859375 -17.6875 C 16.285156 -18.132812 14.703125 -18.675781 13.109375 -19.3125 C 11.523438 -19.957031 10.085938 -20.796875 8.796875 -21.828125 C 7.515625 -22.867188 6.46875 -24.140625 5.65625 -25.640625 C 4.84375 -27.148438 4.4375 -28.992188 4.4375 -31.171875 L 4.4375 -31.34375 C 4.4375 -33.632812 4.867188 -35.660156 5.734375 -37.421875 C 6.609375 -39.179688 7.785156 -40.675781 9.265625 -41.90625 C 10.742188 -43.132812 12.488281 -44.054688 14.5 -44.671875 C 16.507812 -45.285156 18.632812 -45.59375 20.875 -45.59375 C 23.21875 -45.59375 25.5625 -45.269531 27.90625 -44.625 C 30.25 -43.988281 32.539062 -43.164062 34.78125 -42.15625 C 36.789062 -41.257812 37.796875 -39.664062 37.796875 -37.375 C 37.796875 -35.925781 37.304688 -34.726562 36.328125 -33.78125 C 35.347656 -32.832031 34.132812 -32.359375 32.6875 -32.359375 C 31.84375 -32.359375 31.0625 -32.550781 30.34375 -32.9375 C 28.550781 -33.945312 26.816406 -34.671875 25.140625 -35.109375 C 23.460938 -35.554688 21.957031 -35.78125 20.625 -35.78125 C 19.050781 -35.78125 17.875 -35.488281 17.09375 -34.90625 C 16.3125 -34.320312 15.921875 -33.582031 15.921875 -32.6875 L 15.921875 -32.515625 C 15.921875 -31.960938 16.171875 -31.429688 16.671875 -30.921875 C 17.179688 -30.421875 17.851562 -29.960938 18.6875 -29.546875 C 19.53125 -29.128906 20.492188 -28.722656 21.578125 -28.328125 C 22.671875 -27.929688 23.832031 -27.539062 25.0625 -27.15625 C 26.625 -26.65625 28.210938 -26.054688 29.828125 -25.359375 C 31.453125 -24.660156 32.90625 -23.804688 34.1875 -22.796875 C 35.476562 -21.785156 36.539062 -20.554688 37.375 -19.109375 C 38.21875 -17.660156 38.640625 -15.898438 38.640625 -13.828125 L 38.640625 -13.65625 C 38.640625 -11.144531 38.207031 -8.976562 37.34375 -7.15625 C 36.476562 -5.34375 35.257812 -3.847656 33.6875 -2.671875 C 32.125 -1.503906 30.304688 -0.625 28.234375 -0.03125 C 26.171875 0.550781 23.910156 0.84375 21.453125 0.84375 C 18.609375 0.84375 15.742188 0.453125 12.859375 -0.328125 C 9.984375 -1.117188 7.207031 -2.4375 4.53125 -4.28125 C 3.851562 -4.71875 3.273438 -5.300781 2.796875 -6.03125 C 2.328125 -6.757812 2.09375 -7.625 2.09375 -8.625 C 2.09375 -10.082031 2.566406 -11.285156 3.515625 -12.234375 C 4.460938 -13.179688 5.664062 -13.65625 7.125 -13.65625 Z M 7.125 -13.65625 "/></g></g></g><g fill="#f2aa52" fill-opacity="1"><g transform="translate(304.708452, 341.16556)"><g><path d="M 3.515625 -22.375 C 3.515625 -25.5625 4.054688 -28.578125 5.140625 -31.421875 C 6.234375 -34.273438 7.757812 -36.765625 9.71875 -38.890625 C 11.675781 -41.015625 14.023438 -42.691406 16.765625 -43.921875 C 19.503906 -45.148438 22.492188 -45.765625 25.734375 -45.765625 C 29.523438 -45.765625 32.773438 -45.078125 35.484375 -43.703125 C 38.203125 -42.335938 40.441406 -40.59375 42.203125 -38.46875 C 43.960938 -36.34375 45.257812 -34.007812 46.09375 -31.46875 C 46.9375 -28.925781 47.359375 -26.484375 47.359375 -24.140625 C 47.359375 -22.296875 46.785156 -20.8125 45.640625 -19.6875 C 44.492188 -18.570312 43.082031 -18.015625 41.40625 -18.015625 L 16.171875 -18.015625 C 16.785156 -15.109375 18.054688 -12.914062 19.984375 -11.4375 C 21.910156 -9.957031 24.300781 -9.21875 27.15625 -9.21875 C 28.945312 -9.21875 30.582031 -9.484375 32.0625 -10.015625 C 33.539062 -10.546875 34.921875 -11.285156 36.203125 -12.234375 C 36.648438 -12.566406 37.109375 -12.816406 37.578125 -12.984375 C 38.054688 -13.160156 38.632812 -13.25 39.3125 -13.25 C 40.757812 -13.25 41.941406 -12.769531 42.859375 -11.8125 C 43.785156 -10.863281 44.25 -9.664062 44.25 -8.21875 C 44.25 -7.375 44.082031 -6.644531 43.75 -6.03125 C 43.414062 -5.414062 43.023438 -4.882812 42.578125 -4.4375 C 40.617188 -2.757812 38.367188 -1.429688 35.828125 -0.453125 C 33.285156 0.515625 30.335938 1 26.984375 1 C 23.628906 1 20.515625 0.441406 17.640625 -0.671875 C 14.765625 -1.785156 12.28125 -3.375 10.1875 -5.4375 C 8.09375 -7.507812 6.457031 -9.96875 5.28125 -12.8125 C 4.101562 -15.664062 3.515625 -18.796875 3.515625 -22.203125 Z M 16.015625 -25.984375 L 35.203125 -25.984375 C 34.804688 -28.828125 33.796875 -31.128906 32.171875 -32.890625 C 30.554688 -34.648438 28.410156 -35.53125 25.734375 -35.53125 C 23.046875 -35.53125 20.878906 -34.664062 19.234375 -32.9375 C 17.585938 -31.207031 16.515625 -28.890625 16.015625 -25.984375 Z M 16.015625 -25.984375 "/></g></g></g></svg>